<?xml version="1.0" encoding="iso-8859-1"?>
<!-- Uploaded to: SVG Repo, www.svgrepo.com, Generator: SVG Repo Mixer Tools -->
<svg height="800px" width="800px" version="1.1" id="Layer_1" xmlns="http://www.w3.org/2000/svg" xmlns:xlink="http://www.w3.org/1999/xlink" 
	 viewBox="0 0 512.001 512.001" xml:space="preserve">
<path style="fill:#828186;" d="M289.704,125.709L20.004,395.41c-26.672,26.672-26.672,69.915,0,96.587
	c26.672,26.672,69.915,26.672,96.587,0l269.701-269.701L289.704,125.709z M91.447,455.964c-9.778,9.778-25.632,9.778-35.411,0
	s-9.778-25.632,0-35.411s25.632-9.778,35.411,0S101.226,446.186,91.447,455.964z"/>
<path style="fill:#555558;" d="M230.031,185.383c9.093,20.63,22.217,40.135,39.334,57.253
	c17.118,17.118,36.622,30.241,57.252,39.335l59.673-59.673l-96.587-96.587L230.031,185.383z"/>
<path style="fill:#484849;" d="M120.49,390.733L120.49,390.733c-11.989-11.989-11.989-31.429,0-43.419l158.219-158.219
	l43.419,43.419L163.91,390.733C151.92,402.724,132.481,402.724,120.49,390.733z"/>
<path style="fill:#555558;" d="M127.925,396.215c11.585,6.087,26.243,4.26,35.984-5.481l159.442-159.442l-30.503-30.503
	L133.407,360.231C123.665,369.971,121.839,384.629,127.925,396.215z"/>
<path style="fill:#BFBDC3;" d="M510.136,116.912c-0.476-2.802-2.475-5.106-5.181-5.971c-2.708-0.865-5.673-0.149-7.684,1.861
	l-33.803,33.803c-15.542,15.542-40.74,15.542-56.28,0l-41.792-41.792c-15.542-15.542-15.542-40.738,0-56.28l33.803-33.803
	c2.012-2.012,2.732-4.977,1.867-7.687s-3.171-4.703-5.975-5.179c-38.677-6.558-78.568,4.157-107.033,32.621
	c-48.535,48.535-45.468,130.292,6.849,182.609s134.075,55.384,182.609,6.849C505.979,195.481,516.695,155.59,510.136,116.912z"/>
</svg>