<?xml version="1.0" standalone="no"?>
<!DOCTYPE svg PUBLIC "-//W3C//DTD SVG 20010904//EN"
 "http://www.w3.org/TR/2001/REC-SVG-20010904/DTD/svg10.dtd">
<svg version="1.0" xmlns="http://www.w3.org/2000/svg"
 width="512.000000pt" height="512.000000pt" viewBox="0 0 512.000000 512.000000"
 preserveAspectRatio="xMidYMid meet">

<g transform="translate(0.000000,512.000000) scale(0.100000,-0.100000)"
fill="#000000" stroke="none">
<path d="M900 4938 c-101 -17 -209 -92 -269 -186 -65 -104 -61 31 -61 -1983
l0 -1827 128 -133 c357 -371 764 -610 1242 -729 886 -220 1819 45 2450 696 58
60 118 125 133 145 l27 36 -2 1834 -3 1834 -22 55 c-46 112 -133 196 -247 239
-53 20 -77 20 -1694 23 -902 2 -1659 0 -1682 -4z m2462 -445 c71 -32 141 -103
174 -176 l29 -62 3 -1460 c2 -914 -1 -1484 -7 -1523 -6 -35 -20 -83 -31 -108
-28 -58 -96 -125 -157 -155 l-48 -24 -1050 0 -1050 0 -46 23 c-74 36 -125 87
-161 160 l-33 67 -3 1484 c-3 1615 -4 1556 52 1641 31 46 84 98 121 118 79 41
66 41 1135 39 l1025 -2 47 -22z m931 -696 c103 -61 132 -142 125 -351 -5 -146
-17 -188 -71 -245 -59 -62 -92 -71 -280 -71 -186 0 -217 7 -275 63 -65 62 -76
96 -80 252 -5 162 6 226 48 284 63 87 111 102 320 98 161 -2 166 -3 213 -30z
m-294 -1267 c62 -44 71 -79 71 -310 0 -113 -5 -221 -10 -242 -13 -46 -77 -105
-124 -114 -51 -9 -101 3 -136 33 -58 49 -64 70 -68 273 -6 263 8 322 88 370
47 28 132 24 179 -10z"/>
<path d="M3860 2440 c-19 -19 -20 -33 -20 -228 0 -190 2 -210 18 -225 23 -21
66 -22 86 -1 14 13 16 48 16 229 0 210 0 214 -22 229 -30 21 -54 20 -78 -4z"/>
</g>
</svg>
